<?xml version="1.0" encoding="UTF-8" standalone="no"?>
<!-- Uploaded to: SVG Repo, www.svgrepo.com, Generator: SVG Repo Mixer Tools -->

<svg
   width="80"
   height="80.000046"
   viewBox="0 0 1.8 1.800001"
   version="1.1"
   id="svg11"
   sodipodi:docname="inscricao.svg"
   inkscape:version="1.1.2 (b8e25be8, 2022-02-05)"
   xmlns:inkscape="http://www.inkscape.org/namespaces/inkscape"
   xmlns:sodipodi="http://sodipodi.sourceforge.net/DTD/sodipodi-0.dtd"
   xmlns="http://www.w3.org/2000/svg"
   xmlns:svg="http://www.w3.org/2000/svg">
  <defs
     id="defs15" />
  <sodipodi:namedview
     id="namedview13"
     pagecolor="#ffffff"
     bordercolor="#666666"
     borderopacity="1.0"
     inkscape:pageshadow="2"
     inkscape:pageopacity="0.0"
     inkscape:pagecheckerboard="0"
     showgrid="false"
     fit-margin-top="0"
     fit-margin-left="0"
     fit-margin-right="0"
     fit-margin-bottom="0"
     inkscape:zoom="1.09125"
     inkscape:cx="65.521191"
     inkscape:cy="427.9496"
     inkscape:window-width="2240"
     inkscape:window-height="1118"
     inkscape:window-x="0"
     inkscape:window-y="25"
     inkscape:window-maximized="1"
     inkscape:current-layer="svg11" />
  <path
     fill="#494c4e"
     d="M 1.7851898,0.7352441 1.380161,1.1512244 1.475868,1.7381967 a 0.05170367,0.05169756 0 0 1 -0.022002,0.051798 0.05000355,0.04999764 0 0 1 -0.030802,0.01 0.04720335,0.04719777 0 0 1 -0.025002,-0.007 L 0.90012692,1.5176071 0.40179152,1.7929941 A 0.05300377,0.0529975 0 0 1 0.324086,1.7379967 L 0.42009282,1.1513244 0.01506404,0.7353441 A 0.05000355,0.04999764 0 0 1 0.00306319,0.6823466 0.05170367,0.05169756 0 0 1 0.04506617,0.6463483 L 0.60210575,0.5606523 0.85212351,0.02767748 a 0.05520392,0.05519739 0 0 1 0.0957068,0 L 1.197848,0.5606523 1.7551876,0.6464483 a 0.05170367,0.05169756 0 0 1 0.041803,0.0359983 0.05000355,0.04999764 0 0 1 -0.012001,0.0527975 z"
     id="path9"
     style="stroke-width:0.100001" />
</svg>
