<?xml version="1.0" encoding="UTF-8" standalone="no"?>
<!-- Uploaded to: SVG Repo, www.svgrepo.com, Generator: SVG Repo Mixer Tools -->

<svg
   fill="#000000"
   width="80"
   height="80"
   viewBox="0 0 102.4 102.4"
   version="1.1"
   id="svg8"
   sodipodi:docname="movies.svg"
   inkscape:version="1.1.2 (b8e25be8, 2022-02-05)"
   xmlns:inkscape="http://www.inkscape.org/namespaces/inkscape"
   xmlns:sodipodi="http://sodipodi.sourceforge.net/DTD/sodipodi-0.dtd"
   xmlns="http://www.w3.org/2000/svg"
   xmlns:svg="http://www.w3.org/2000/svg">
  <defs
     id="defs12" />
  <sodipodi:namedview
     id="namedview10"
     pagecolor="#ffffff"
     bordercolor="#666666"
     borderopacity="1.0"
     inkscape:pageshadow="2"
     inkscape:pageopacity="0.0"
     inkscape:pagecheckerboard="0"
     showgrid="false"
     fit-margin-top="0"
     fit-margin-left="0"
     fit-margin-right="0"
     fit-margin-bottom="0"
     inkscape:zoom="0.89875"
     inkscape:cx="344.36718"
     inkscape:cy="344.9235"
     inkscape:window-width="1390"
     inkscape:window-height="868"
     inkscape:window-x="0"
     inkscape:window-y="25"
     inkscape:window-maximized="0"
     inkscape:current-layer="svg8" />
  <g
     id="g896"
     transform="matrix(0.11627907,0,0,0.11627907,-8.3348837,-8.3348837)">
    <path
       d="m 829.44,911.36 c 45.245,0 81.92,-36.675 81.92,-81.92 V 194.56 c 0,-45.245 -36.675,-81.92 -81.92,-81.92 H 194.56 c -45.245,0 -81.92,36.675 -81.92,81.92 v 634.88 c 0,45.245 36.675,81.92 81.92,81.92 z m 0,40.96 H 194.56 C 126.694,952.32 71.68,897.306 71.68,829.44 V 194.56 c 0,-67.866 55.014,-122.88 122.88,-122.88 h 634.88 c 67.866,0 122.88,55.014 122.88,122.88 v 634.88 c 0,67.866 -55.014,122.88 -122.88,122.88 z"
       id="path2" />
    <path
       d="m 97.28,286.72 h 829.44 c 11.311,0 20.48,-9.169 20.48,-20.48 0,-11.311 -9.169,-20.48 -20.48,-20.48 H 97.28 c -11.311,0 -20.48,9.169 -20.48,20.48 0,11.311 9.169,20.48 20.48,20.48 z"
       id="path4" />
    <path
       d="M 756.64,83.234 594.725,245.149 c -7.998,7.998 -7.998,20.965 0,28.963 7.998,7.998 20.965,7.998 28.963,0 L 785.603,112.197 c 7.998,-7.998 7.998,-20.965 0,-28.963 -7.998,-7.998 -20.965,-7.998 -28.963,0 z m -159.744,0 -161.915,161.915 c -7.998,7.998 -7.998,20.965 0,28.963 7.998,7.998 20.965,7.998 28.963,0 L 625.859,112.197 c 7.998,-7.998 7.998,-20.965 0,-28.963 -7.998,-7.998 -20.965,-7.998 -28.963,0 z m -160.768,0 -161.915,161.915 c -7.998,7.998 -7.998,20.965 0,28.963 7.998,7.998 20.965,7.998 28.963,0 L 465.091,112.197 c 7.998,-7.998 7.998,-20.965 0,-28.963 -7.998,-7.998 -20.965,-7.998 -28.963,0 z M 277.408,82.21 115.493,244.125 c -7.998,7.998 -7.998,20.965 0,28.963 7.998,7.998 20.965,7.998 28.963,0 L 306.371,111.173 c 7.998,-7.998 7.998,-20.965 0,-28.963 -7.998,-7.998 -20.965,-7.998 -28.963,0 z m 597.853,43.146 -125.317,125.317 c -7.998,7.998 -7.998,20.965 0,28.963 7.998,7.998 20.965,7.998 28.963,0 L 904.224,154.319 c 7.998,-7.998 7.998,-20.965 0,-28.963 -7.998,-7.998 -20.965,-7.998 -28.963,0 z m -426.9,310.275 c -6.817,-4.322 -15.723,0.577 -15.723,8.649 v 280.924 c 0,8.066 8.909,12.969 15.723,8.649 L 670.006,593.391 c 6.346,-4.021 6.346,-13.277 -10e-4,-17.298 L 448.36,435.631 Z M 691.93,541.496 c 31.727,20.104 31.727,66.39 0.001,86.494 L 470.289,768.45 c -34.084,21.608 -78.611,-2.893 -78.611,-43.245 V 444.281 c 0,-40.36 44.523,-64.853 78.609,-43.246 z"
       id="path6" />
  </g>
</svg>
